<svg xmlns="http://www.w3.org/2000/svg" xmlns:xlink="http://www.w3.org/1999/xlink" width="1024" height="672" viewBox="0 0 1024 672"><defs><rect id="background-a" width="1024" height="672"/></defs><g fill="none" fill-rule="evenodd"><mask id="background-b" fill="#fff"><use xlink:href="#background-a"/></mask><rect width="1023" height="671" x=".5" y=".5" stroke="#979797"/><g mask="url(#background-b)"><polygon fill="#302E82" points="916.294 96.844 1106.789 96.844 1106.789 0 916.294 0"/><polygon fill="#332D83" points="916.294 193.688 1106.789 193.688 1106.789 96.844 916.294 96.844"/><polygon fill="#3E2B81" points="916.294 289.468 1106.789 289.468 1106.789 192.624 916.294 192.624"/><polygon fill="#512A7D" points="916.294 386.312 1106.789 386.312 1106.789 289.468 916.294 289.468"/><polygon fill="#6C2B79" points="916.294 483.156 1106.789 483.156 1106.789 386.312 916.294 386.312"/><polygon fill="#8D2873" points="916.294 578.936 1106.789 578.936 1106.789 482.092 916.294 482.092"/><polygon fill="#AD206A" points="916.294 675.78 1106.789 675.78 1106.789 578.936 916.294 578.936"/><polygon fill="#302E82" points="867.339 96.844 963.119 96.844 963.119 0 867.339 0"/><polygon fill="#332D81" points="867.339 193.688 963.119 193.688 963.119 96.844 867.339 96.844"/><polygon fill="#402A80" points="867.339 289.468 963.119 289.468 963.119 192.624 867.339 192.624"/><polygon fill="#512A7D" points="867.339 386.312 963.119 386.312 963.119 289.468 867.339 289.468"/><polygon fill="#6C2B79" points="867.339 483.156 963.119 483.156 963.119 386.312 867.339 386.312"/><polygon fill="#8D2872" points="867.339 578.936 963.119 578.936 963.119 482.092 867.339 482.092"/><polygon fill="#AB216A" points="867.339 675.78 963.119 675.78 963.119 578.936 867.339 578.936"/><polygon fill="#2F2F82" points="819.45 96.844 915.229 96.844 915.229 0 819.45 0"/><polygon fill="#332D81" points="819.45 193.688 915.229 193.688 915.229 96.844 819.45 96.844"/><polygon fill="#402A80" points="819.45 289.468 915.229 289.468 915.229 192.624 819.45 192.624"/><polygon fill="#502B7D" points="819.45 386.312 915.229 386.312 915.229 289.468 819.45 289.468"/><polygon fill="#6B2A77" points="819.45 483.156 915.229 483.156 915.229 386.312 819.45 386.312"/><polygon fill="#8D2A74" points="819.45 578.936 915.229 578.936 915.229 482.092 819.45 482.092"/><polygon fill="#AA246C" points="819.45 675.78 915.229 675.78 915.229 578.936 819.45 578.936"/><polygon fill="#2D2D80" points="771.56 96.844 867.339 96.844 867.339 0 771.56 0"/><polygon fill="#342C7F" points="771.56 193.688 866.275 193.688 866.275 96.844 771.56 96.844"/><polygon fill="#402A7E" points="771.56 289.468 866.275 289.468 866.275 192.624 771.56 192.624"/><polygon fill="#512A7D" points="771.56 386.312 866.275 386.312 866.275 289.468 771.56 289.468"/><polygon fill="#6B2A77" points="771.56 483.156 866.275 483.156 866.275 386.312 771.56 386.312"/><polygon fill="#8D2A74" points="771.56 578.936 866.275 578.936 866.275 482.092 771.56 482.092"/><polygon fill="#AB276E" points="771.56 675.78 866.275 675.78 866.275 578.936 771.56 578.936"/><polygon fill="#2E2C7E" points="723.67 96.844 819.45 96.844 819.45 0 723.67 0"/><polygon fill="#342A7E" points="723.67 193.688 819.45 193.688 819.45 96.844 723.67 96.844"/><polygon fill="#402A7D" points="723.67 289.468 819.45 289.468 819.45 192.624 723.67 192.624"/><polygon fill="#522B7C" points="723.67 386.312 819.45 386.312 819.45 289.468 723.67 289.468"/><polygon fill="#6B2C7A" points="723.67 483.156 819.45 483.156 819.45 386.312 723.67 386.312"/><polygon fill="#8B2C75" points="723.67 578.936 819.45 578.936 819.45 482.092 723.67 482.092"/><polygon fill="#AB276F" points="723.67 675.78 819.45 675.78 819.45 578.936 723.67 578.936"/><polygon fill="#30297B" points="674.716 96.844 770.495 96.844 770.495 0 674.716 0"/><polygon fill="#35297C" points="674.716 193.688 770.495 193.688 770.495 96.844 674.716 96.844"/><polygon fill="#422C7D" points="674.716 289.468 770.495 289.468 770.495 192.624 674.716 192.624"/><polygon fill="#542D7B" points="674.716 386.312 770.495 386.312 770.495 289.468 674.716 289.468"/><polygon fill="#6A2E78" points="674.716 483.156 770.495 483.156 770.495 386.312 674.716 386.312"/><polygon fill="#8B2C75" points="674.716 578.936 770.495 578.936 770.495 482.092 674.716 482.092"/><polygon fill="#A82F73" points="674.716 675.78 770.495 675.78 770.495 578.936 674.716 578.936"/><polygon fill="#2E2B76" points="626.826 96.844 722.606 96.844 722.606 0 626.826 0"/><polygon fill="#352979" points="626.826 193.688 722.606 193.688 722.606 96.844 626.826 96.844"/><polygon fill="#422A7A" points="626.826 289.468 722.606 289.468 722.606 192.624 626.826 192.624"/><polygon fill="#552E7D" points="626.826 386.312 722.606 386.312 722.606 289.468 626.826 289.468"/><polygon fill="#6B327C" points="626.826 483.156 722.606 483.156 722.606 386.312 626.826 386.312"/><polygon fill="#873278" points="626.826 578.936 722.606 578.936 722.606 482.092 626.826 482.092"/><polygon fill="#A83476" points="626.826 675.78 722.606 675.78 722.606 578.936 626.826 578.936"/><polygon fill="#2E2A72" points="578.936 96.844 674.716 96.844 674.716 0 578.936 0"/><polygon fill="#352877" points="578.936 193.688 674.716 193.688 674.716 96.844 578.936 96.844"/><polygon fill="#412C7A" points="578.936 289.468 674.716 289.468 674.716 192.624 578.936 192.624"/><polygon fill="#5A317B" points="578.936 386.312 674.716 386.312 674.716 289.468 578.936 289.468"/><polygon fill="#72367D" points="578.936 483.156 674.716 483.156 674.716 386.312 578.936 386.312"/><polygon fill="#873679" points="578.936 578.936 674.716 578.936 674.716 482.092 578.936 482.092"/><polygon fill="#A63D78" points="578.936 675.78 674.716 675.78 674.716 578.936 578.936 578.936"/><polygon fill="#2D2A6E" points="531.046 96.844 626.826 96.844 626.826 0 531.046 0"/><polygon fill="#362A75" points="531.046 193.688 626.826 193.688 626.826 96.844 531.046 96.844"/><polygon fill="#432D79" points="531.046 289.468 626.826 289.468 626.826 192.624 531.046 192.624"/><polygon fill="#5A347C" points="531.046 386.312 626.826 386.312 626.826 289.468 531.046 289.468"/><polygon fill="#6F3B7E" points="531.046 483.156 626.826 483.156 626.826 386.312 531.046 386.312"/><polygon fill="#8A3E7E" points="531.046 578.936 626.826 578.936 626.826 482.092 531.046 482.092"/><polygon fill="#A7457D" points="531.046 675.78 626.826 675.78 626.826 578.936 531.046 578.936"/><polygon fill="#2C296A" points="483.156 96.844 578.936 96.844 578.936 0 483.156 0"/><polygon fill="#382A74" points="483.156 193.688 578.936 193.688 578.936 96.844 483.156 96.844"/><polygon fill="#443079" points="483.156 289.468 578.936 289.468 578.936 192.624 483.156 192.624"/><polygon fill="#57357B" points="483.156 386.312 578.936 386.312 578.936 289.468 483.156 289.468"/><polygon fill="#723F81" points="483.156 483.156 578.936 483.156 578.936 386.312 483.156 386.312"/><polygon fill="#8A4682" points="483.156 578.936 578.936 578.936 578.936 482.092 483.156 482.092"/><polygon fill="#A44F84" points="483.156 675.78 578.936 675.78 578.936 578.936 483.156 578.936"/><polygon fill="#2B2965" points="434.202 96.844 529.982 96.844 529.982 0 434.202 0"/><polygon fill="#392B72" points="434.202 193.688 529.982 193.688 529.982 96.844 434.202 96.844"/><polygon fill="#493177" points="434.202 289.468 529.982 289.468 529.982 192.624 434.202 192.624"/><polygon fill="#54377B" points="434.202 386.312 529.982 386.312 529.982 289.468 434.202 289.468"/><polygon fill="#714283" points="434.202 483.156 529.982 483.156 529.982 386.312 434.202 386.312"/><polygon fill="#8B4E87" points="434.202 578.936 529.982 578.936 529.982 482.092 434.202 482.092"/><polygon fill="#A75C8B" points="434.202 675.78 529.982 675.78 529.982 578.936 434.202 578.936"/><polygon fill="#2B2760" points="386.312 96.844 482.092 96.844 482.092 0 386.312 0"/><polygon fill="#3A2C6E" points="386.312 193.688 482.092 193.688 482.092 96.844 386.312 96.844"/><polygon fill="#483275" points="386.312 289.468 482.092 289.468 482.092 192.624 386.312 192.624"/><polygon fill="#583A7C" points="386.312 386.312 482.092 386.312 482.092 289.468 386.312 289.468"/><polygon fill="#734886" points="386.312 483.156 482.092 483.156 482.092 386.312 386.312 386.312"/><polygon fill="#89558C" points="386.312 578.936 482.092 578.936 482.092 482.092 386.312 482.092"/><polygon fill="#A86492" points="386.312 675.78 482.092 675.78 482.092 578.936 386.312 578.936"/><polygon fill="#2A255A" points="338.422 96.844 434.202 96.844 434.202 0 338.422 0"/><polygon fill="#332A69" points="338.422 193.688 434.202 193.688 434.202 96.844 338.422 96.844"/><polygon fill="#3F3070" points="338.422 289.468 434.202 289.468 434.202 192.624 338.422 192.624"/><polygon fill="#593C7B" points="338.422 386.312 434.202 386.312 434.202 289.468 338.422 289.468"/><polygon fill="#714E87" points="338.422 483.156 434.202 483.156 434.202 386.312 338.422 386.312"/><polygon fill="#8B5D91" points="338.422 578.936 434.202 578.936 434.202 482.092 338.422 482.092"/><polygon fill="#AA739B" points="338.422 675.78 434.202 675.78 434.202 578.936 338.422 578.936"/><polygon fill="#272554" points="290.532 96.844 386.312 96.844 386.312 0 290.532 0"/><polygon fill="#322965" points="290.532 193.688 386.312 193.688 386.312 96.844 290.532 96.844"/><polygon fill="#3D326F" points="290.532 289.468 386.312 289.468 386.312 192.624 290.532 192.624"/><polygon fill="#57417B" points="290.532 386.312 386.312 386.312 386.312 289.468 290.532 289.468"/><polygon fill="#71548B" points="290.532 483.156 386.312 483.156 386.312 386.312 290.532 386.312"/><polygon fill="#8F6795" points="290.532 578.936 386.312 578.936 386.312 482.092 290.532 482.092"/><polygon fill="#AA7EA3" points="290.532 675.78 386.312 675.78 386.312 578.936 290.532 578.936"/><polygon fill="#26214E" points="242.642 96.844 338.422 96.844 338.422 0 242.642 0"/><polygon fill="#31275F" points="242.642 193.688 338.422 193.688 338.422 96.844 242.642 96.844"/><polygon fill="#3F326E" points="242.642 289.468 338.422 289.468 338.422 192.624 242.642 192.624"/><polygon fill="#5B457F" points="242.642 386.312 338.422 386.312 338.422 289.468 242.642 289.468"/><polygon fill="#74598D" points="242.642 483.156 338.422 483.156 338.422 386.312 242.642 386.312"/><polygon fill="#8C6E9B" points="242.642 578.936 338.422 578.936 338.422 482.092 242.642 482.092"/><polygon fill="#AE8BAE" points="242.642 675.78 338.422 675.78 338.422 578.936 242.642 578.936"/><polygon fill="#251F4A" points="193.688 96.844 289.468 96.844 289.468 0 193.688 0"/><polygon fill="#292655" points="193.688 193.688 289.468 193.688 289.468 96.844 193.688 96.844"/><polygon fill="#3B3269" points="193.688 289.468 289.468 289.468 289.468 192.624 193.688 192.624"/><polygon fill="#58467E" points="193.688 386.312 289.468 386.312 289.468 289.468 193.688 289.468"/><polygon fill="#745F91" points="193.688 483.156 289.468 483.156 289.468 386.312 193.688 386.312"/><polygon fill="#9178A3" points="193.688 578.936 289.468 578.936 289.468 482.092 193.688 482.092"/><polygon fill="#B098B7" points="193.688 675.78 289.468 675.78 289.468 578.936 193.688 578.936"/><polygon fill="#231F48" points="145.798 96.844 241.578 96.844 241.578 0 145.798 0"/><polygon fill="#28214D" points="145.798 193.688 241.578 193.688 241.578 96.844 145.798 96.844"/><polygon fill="#372F65" points="145.798 289.468 241.578 289.468 241.578 192.624 145.798 192.624"/><polygon fill="#54437B" points="145.798 386.312 241.578 386.312 241.578 289.468 145.798 289.468"/><polygon fill="#6A598A" points="145.798 483.156 241.578 483.156 241.578 386.312 145.798 386.312"/><polygon fill="#8F7DA4" points="145.798 578.936 241.578 578.936 241.578 482.092 145.798 482.092"/><polygon fill="#B2A2BF" points="145.798 675.78 241.578 675.78 241.578 578.936 145.798 578.936"/><polygon fill="#221E45" points="97.908 96.844 193.688 96.844 193.688 0 97.908 0"/><polygon fill="#261F4A" points="97.908 193.688 193.688 193.688 193.688 96.844 97.908 96.844"/><polygon fill="#312A5A" points="97.908 289.468 193.688 289.468 193.688 192.624 97.908 192.624"/><polygon fill="#50447A" points="97.908 386.312 193.688 386.312 193.688 289.468 97.908 289.468"/><polygon fill="#6D5B8C" points="50.018 483.156 193.688 483.156 193.688 386.312 50.018 386.312"/><polygon fill="#9283AA" points="97.908 578.936 193.688 578.936 193.688 482.092 97.908 482.092"/><polygon fill="#B2A7C5" points="97.908 675.78 193.688 675.78 193.688 578.936 97.908 578.936"/><polygon fill="#221D44" points="50.018 96.844 145.798 96.844 145.798 0 50.018 0"/><polygon fill="#251F49" points="50.018 193.688 145.798 193.688 145.798 96.844 50.018 96.844"/><polygon fill="#2B2550" points="50.018 289.468 145.798 289.468 145.798 192.624 50.018 192.624"/><polygon fill="#423769" points="50.018 386.312 145.798 386.312 145.798 289.468 50.018 289.468"/><polygon fill="#9487AC" points="50.018 578.936 145.798 578.936 145.798 482.092 50.018 482.092"/><polygon fill="#B8B0CD" points="50.018 675.78 145.798 675.78 145.798 578.936 50.018 578.936"/><polygon fill="#A9A1BE" points="50.018 675.78 96.844 675.78 96.844 578.936 50.018 578.936"/><polygon fill="#211D43" points="0 96.844 95.78 96.844 95.78 0 0 0"/><polygon fill="#252047" points="0 193.688 95.78 193.688 95.78 96.844 0 96.844"/><polygon fill="#2D2551" points="0 289.468 95.78 289.468 95.78 192.624 0 192.624"/><polygon fill="#3B315E" points="0 386.312 95.78 386.312 95.78 289.468 0 289.468"/><polygon fill="#544A78" points="0 483.156 95.78 483.156 95.78 386.312 0 386.312"/><polygon fill="#80759C" points="0 578.936 95.78 578.936 95.78 482.092 0 482.092"/><polygon fill="#A9A1BE" points="0 675.78 95.78 675.78 95.78 578.936 0 578.936"/></g></g></svg>