<svg xmlns="http://www.w3.org/2000/svg" xmlns:xlink="http://www.w3.org/1999/xlink" width="50" height="50" version="1.1" viewBox="0 0 50 50"><title>Combined Shape</title><desc>Created with Sketch.</desc><defs><path id="path-1" d="M22.75,2.5 C22.75,1.25735931 23.7573593,0.25 25,0.25 C26.2426407,0.25 27.25,1.25735931 27.25,2.5 L27.25,11.5 C27.25,12.7426407 26.2426407,13.75 25,13.75 C23.7573593,13.75 22.75,12.7426407 22.75,11.5 L22.75,2.5 Z M22.75,38.5 C22.75,37.2573593 23.7573593,36.25 25,36.25 C26.2426407,36.25 27.25,37.2573593 27.25,38.5 L27.25,47.5 C27.25,48.7426407 26.2426407,49.75 25,49.75 C23.7573593,49.75 22.75,48.7426407 22.75,47.5 L22.75,38.5 Z M7.50150974,10.6834903 C6.62283009,9.8048106 6.62283009,8.3801894 7.50150974,7.50150974 C8.3801894,6.62283009 9.8048106,6.62283009 10.6834903,7.50150974 L17.0509903,13.8690097 C17.9296699,14.7476894 17.9296699,16.1723106 17.0509903,17.0509903 C16.1723106,17.9296699 14.7476894,17.9296699 13.8690097,17.0509903 L7.50150974,10.6834903 Z M32.9490097,36.1309903 C32.0703301,35.2523106 32.0703301,33.8276894 32.9490097,32.9490097 C33.8276894,32.0703301 35.2523106,32.0703301 36.1309903,32.9490097 L42.4984903,39.3165097 C43.3771699,40.1951894 43.3771699,41.6198106 42.4984903,42.4984903 C41.6198106,43.3771699 40.1951894,43.3771699 39.3165097,42.4984903 L32.9490097,36.1309903 Z M2.5,27.25 C1.25735931,27.25 0.25,26.2426407 0.25,25 C0.25,23.7573593 1.25735931,22.75 2.5,22.75 L11.5,22.75 C12.7426407,22.75 13.75,23.7573593 13.75,25 C13.75,26.2426407 12.7426407,27.25 11.5,27.25 L2.5,27.25 Z M38.5,27.25 C37.2573593,27.25 36.25,26.2426407 36.25,25 C36.25,23.7573593 37.2573593,22.75 38.5,22.75 L47.5,22.75 C48.7426407,22.75 49.75,23.7573593 49.75,25 C49.75,26.2426407 48.7426407,27.25 47.5,27.25 L38.5,27.25 Z M10.6834903,42.4984903 C9.8048106,43.3771699 8.3801894,43.3771699 7.50150974,42.4984903 C6.62283009,41.6198106 6.62283009,40.1951894 7.50150974,39.3165097 L13.8690097,32.9490097 C14.7476894,32.0703301 16.1723106,32.0703301 17.0509903,32.9490097 C17.9296699,33.8276894 17.9296699,35.2523106 17.0509903,36.1309903 L10.6834903,42.4984903 Z M36.1309903,17.0509903 C35.2523106,17.9296699 33.8276894,17.9296699 32.9490097,17.0509903 C32.0703301,16.1723106 32.0703301,14.7476894 32.9490097,13.8690097 L39.3165097,7.50150974 C40.1951894,6.62283009 41.6198106,6.62283009 42.4984903,7.50150974 C43.3771699,8.3801894 43.3771699,9.8048106 42.4984903,10.6834903 L36.1309903,17.0509903 Z"/></defs><g id="Token-Migration" fill="none" fill-rule="evenodd" stroke="none" stroke-width="1"><g id="04.5-Prepare-Transaction-Meta-Mask-Transaction-Loading" transform="translate(-695.000000, -340.000000)"><g id="Group-4" transform="translate(270.000000, 150.000000)"><g id="loader" transform="translate(425.000000, 190.000000)"><mask id="mask-2" fill="#fff"><use xlink:href="#path-1"/></mask><use id="Combined-Shape" fill="#FFF" fill-rule="nonzero" xlink:href="#path-1"/></g></g></g></g></svg>